<svg
  width="261"
  height="66"
  viewBox="0 0 261 66"
  fill="none"
  xmlns="http://www.w3.org/2000/svg"
  xmlns:xlink="http://www.w3.org/1999/xlink">
  <symbol id="logo-symbol-wordmark">
    <path
      fill="#7491db"
      transform="scale(0.165)"
      d="M 0 200 C 0 48, 48 0, 200 0 S 400 48, 400 200, 352 400 200 400, 0 352, 0 200" />
    <path
      fill="#f5f5f5"
      transform="scale(0.165)"
      d="M 199.99609 12 C 173.1287 12 149.71972 13.595964 129.41602 17.136719 L 31.650391 318.02734 C 56.677494 369.33467 108.12291 388 199.99609 388 C 226.86698 388 250.27805 386.40345 270.58398 382.86133 L 368.34961 81.970703 C 343.32117 30.662466 291.8716 12 199.99609 12 z M 191.20898 108.22461 L 208.95898 172.42578 L 261.05664 130.91992 L 284.56641 163.2793 L 228.99414 200 L 284.56641 236.7207 L 261.05664 269.08203 L 208.95898 227.57617 L 191.20898 291.77539 L 153.16797 279.41406 L 176.54297 217.04297 L 110 220 L 110 180 L 176.54297 182.95703 L 153.16797 120.58594 L 191.20898 108.22461 z " />
    <g
      fill="#7491db"
      transform="matrix(0.19348979,-0.03359915,-0.01812064,0.20711985,73.394841,-4.7124864)">
      <path
        d="M 175.32126,58.984446 V 194.22415 h -17.1733 V 58.984446 Z m -44.92657,1.993328 h 16.86663 V 190.54416 H 130.39469 V 123.53764 H 116.4414 V 108.511 h 13.95329 z M 119.96806,87.044387 H 55.568198 V 72.01775 h 64.399862 z m 2.60666,56.426543 1.68666,13.9533 c -8.48443,1.73777 -18.85996,3.01555 -31.126599,3.83332 -12.266639,0.81778 -25.044389,1.22667 -38.333248,1.22667 L 53.11487,147.45759 c 6.542208,0 11.448864,-0.0511 14.719968,-0.15334 l -3.219993,-50.753223 16.713296,-1.53333 1.686663,51.979893 8.893313,-0.46 2.453328,-51.673223 16.559965,1.53333 -3.67999,49.219893 c 6.95109,-0.71555 12.06219,-1.43111 15.3333,-2.14666 z" />
      <path
        d="m 318.78326,74.46574 v 70.37985 H 300.3833 V 74.46574 Z M 205.16351,110.959 c 0,-6.54222 1.53333,-12.317755 4.59999,-17.326625 3.16888,-5.1111 7.51331,-8.99554 13.0333,-11.65331 5.51999,-2.76 11.85776,-4.14 19.0133,-4.14 7.05331,0 13.33996,1.38 18.85995,4.14 5.51999,2.75999 9.81331,6.64443 12.87997,11.65331 3.16889,5.00887 4.75333,10.784405 4.75333,17.326625 0,6.54221 -1.58444,12.31775 -4.75333,17.32663 -3.06666,5.00888 -7.35998,8.89332 -12.87997,11.65331 -5.51999,2.75999 -11.80664,4.13999 -18.85995,4.13999 -7.15554,0 -13.49331,-1.32889 -19.0133,-3.98666 -5.51999,-2.75999 -9.86442,-6.64443 -13.0333,-11.65331 -3.06666,-5.1111 -4.59999,-10.93775 -4.59999,-17.47996 z m 53.81988,2.60666 v -5.06 c 0,-4.90665 -1.58444,-8.739975 -4.75332,-11.499965 -3.06666,-2.86221 -7.20665,-4.29332 -12.41997,-4.29332 -5.31555,0 -9.55776,1.43111 -12.72664,4.29332 -3.06666,2.75999 -4.59999,6.593315 -4.59999,11.499965 v 5.06 c 0,4.90666 1.58444,8.7911 4.75332,11.65331 3.16888,2.75999 7.35998,4.13999 12.57331,4.13999 5.21332,0 9.35331,-1.38 12.41997,-4.13999 3.16888,-2.86221 4.75332,-6.74665 4.75332,-11.65331 z m -28.8266,90.92647 v -27.13994 h 70.53317 v -10.88665 h -71.29984 v -14.25996 h 89.39314 v 38.48658 h -70.53318 v 11.03997 h 73.59984 v 14.4133 H 241.8101 c -7.76887,0 -11.65331,-3.88443 -11.65331,-11.6533 z" />
      <path
        d="m 102.81706,217.22564 v 11.95997 h 54.58654 v -11.95997 h 17.78663 v 49.52655 H 85.030433 v -49.52655 z m 54.58654,25.45327 h -54.58654 v 10.42665 h 54.58654 z m 35.87992,32.5066 v 14.56663 H 66.93714 V 275.18551 Z M 85.950431,345.10535 v -24.07328 h 71.606499 v -9.50664 H 85.183766 v -13.33997 h 89.699794 v 35.26658 h -71.75983 v 9.65998 h 75.28649 v 13.64664 H 97.603738 c -7.768871,0 -11.653307,-3.88444 -11.653307,-11.65331 z" />
      <path
        d="m 302.57572,259.22738 h -71.14651 v -14.8733 h 89.2398 v 40.6333 h -70.83984 v 11.3466 h 74.21317 v 15.0267 h -92.30646 v -40.6333 h 70.83984 z m 36.79992,78.0465 h -53.97322 v 43.6999 h -18.39996 v -43.6999 h -53.97321 v -15.3333 h 126.34639 z" />
      <path
        d="m 561.77625,268.65906 v 24 h -197.76 v -24 h 84.48 v -41.28 h -58.8 v -112.32 h 28.32 v 33.84 h 88.8 v -33.84 h 28.32 v 112.32 h -57.84 v 41.28 z m -143.76,-64.8 h 88.8 v -31.44 h -88.8 z" />
      <path
        d="m 732.83675,146.30579 h 28.8 v 211.68 h -28.8 z m -149.04,85.92 c 0,-24 5.28,-42.08 15.84,-54.24 10.71999,-12.32 24.96,-18.48 42.72,-18.48 17.6,0 31.68,6.16 42.24,18.48 10.56,12.16 15.84,30.24 15.84,54.24 0,23.84001 -5.28,41.92 -15.84,54.24 -10.56,12.32001 -24.64,18.48 -42.24,18.48 -17.60001,0 -31.76001,-6.15999 -42.48,-18.48 -10.72,-12.32 -16.08,-30.39999 -16.08,-54.24 z m 86.16,13.44 v -26.88 c 0,-11.52 -2.48001,-20.24 -7.44,-26.16 -4.96,-6.08 -11.68,-9.12 -20.16,-9.12 -8.48001,0 -15.28,3.04 -20.4,9.12 -5.12001,6.08001 -7.68,14.8 -7.68,26.16 v 26.88 c 0,11.36001 2.55999,20.08 7.68,26.16 5.12,6.08001 11.91999,9.12 20.4,9.12 8.48,0 15.2,-2.96 20.16,-8.88 4.95999,-6.08 7.44,-14.88 7.44,-26.4 z" />
      <path
        d="m 986.71169,182.85657 v 211.68 h -28.32 v -119.52 h -40.32 v -24 h 40.32 v -68.16 z m -98.16,92.4 c 3.03999,0 5.76,1.2 8.16,3.6 l 39.84,46.32 -21.6,18.48 -41.28,-49.92 c -1.12,-1.12 -2.16,-1.68 -3.12,-1.68 -0.96,0 -1.84,0.48 -2.64,1.44 -4.64001,8.16 -10.40001,16.56 -17.28,25.2 -6.88,8.48 -15.36,18 -25.44,28.56 l -21.6,-17.76 c 18.56,-18.08001 31.76,-34.64001 39.6,-49.68 8,-15.04 12,-31.36 12,-48.96 v -5.76 h -43.2 v -23.76 h 114.96 v 23.76 h -42.96 v 6.96 c 0,17.91999 -3.28,34.4 -9.84,49.44 l 1.2,0.72 5.76,-4.32 c 2.55999,-1.76001 5.04,-2.64 7.44,-2.64 z" />
      <path
        d="m 451.50636,326.63406 v 82.87997 h -12.03999 v -82.87997 z m -30.05332,1.21333 h 11.85333 v 79.42664 h -11.85333 v -45.35998 h -14.46666 v -10.36 h 14.46666 z m -6.16,46.94665 1.49333,10.08 c -8.15111,1.86667 -17.98221,2.8 -29.49332,2.8 h -6.62666 v -52.63998 h 12.03999 v 42.27998 c 8.77333,-0.18667 16.30222,-1.02667 22.58666,-2.52 z" />
      <path
        d="m 489.15866,344.65183 h 56.46664 v 10.45333 h -43.86665 v 8.58667 h 42.37332 v 9.98666 h -42.18665 v 8.58666 h 45.17331 v 10.45333 h -57.95997 z m 66.63997,69.15998 h -77.0933 v -10.64 h 77.0933 z" />
      <path
        d="m 651.28564,356.53945 v 82.87997 h -12.50666 v -17.07999 h -16.89333 v -9.98667 h 16.89333 v -55.81331 z m -68.31997,20.43999 c 0,-3.60889 0.96444,-6.78222 2.89333,-9.51999 1.99111,-2.73778 4.69778,-4.85334 8.12,-6.34667 3.48444,-1.49333 7.46666,-2.24 11.94666,-2.24 4.48,0 8.43111,0.74667 11.85333,2.24 3.48444,1.49333 6.19111,3.60889 8.12,6.34667 1.99111,2.73777 2.98666,5.9111 2.98666,9.51999 0,3.60889 -0.99555,6.78222 -2.98666,9.52 -1.92889,2.67555 -4.63556,4.76 -8.12,6.25333 -3.42222,1.49333 -7.37333,2.24 -11.85333,2.24 -4.48,0 -8.46222,-0.74667 -11.94666,-2.24 -3.42222,-1.49333 -6.12889,-3.57778 -8.12,-6.25333 -1.92889,-2.73778 -2.89333,-5.91111 -2.89333,-9.52 z m 12.87999,0.65334 c 0,2.30222 0.90222,4.13777 2.70667,5.50666 1.86667,1.36889 4.32444,2.05333 7.37333,2.05333 3.04889,0 5.47555,-0.68444 7.28,-2.05333 1.86667,-1.36889 2.8,-3.20444 2.8,-5.50666 v -1.4 c 0,-2.30223 -0.93333,-4.13778 -2.8,-5.50667 -1.80445,-1.36889 -4.23111,-2.05333 -7.28,-2.05333 -3.04889,0 -5.50666,0.68444 -7.37333,2.05333 -1.80445,1.36889 -2.70667,3.20444 -2.70667,5.50667 z m 16.14666,31.54665 v 29.49332 H 599.579 v -28.83999 c -8.96,0.24889 -15.77333,0.37334 -20.44,0.37334 l -1.02666,-10.45333 c 10.57777,0 20.78221,-0.21778 30.61332,-0.65334 9.83111,-0.43555 17.85777,-1.08888 24.07999,-1.95999 l 1.12,9.79999 c -5.84889,0.93333 -13.16,1.68 -21.93333,2.24 z" />
      <path
        d="m 734.17248,400.89667 c 0.12444,-2.8 0.24888,-6.87555 0.37333,-12.22666 h -45.73332 v -10.54666 h 58.23998 v 10.07999 c 0,7.96444 -0.31111,15.24444 -0.93333,21.83999 -0.62222,6.59555 -1.61778,13.16 -2.98667,19.69333 l -12.13333,-1.86667 c 1.18223,-5.97333 2.02223,-11.66666 2.52,-17.07999 l -46.10665,2.61333 -1.58666,-10.73333 z m 21.93332,33.97332 v 10.64 h -77.0933 v -10.64 z" />
    </g>
  </symbol>
  <use xlink:href="#logo-symbol-wordmark" />
</svg>
