<?xml version="1.0" encoding="UTF-8" standalone="no"?>
<!-- Created with Inkscape (http://www.inkscape.org/) -->

<svg
   width="400"
   height="400"
   viewBox="0 0 400 400"
   version="1.1"
   id="svg5"
   inkscape:version="1.1.2 (0a00cf5339, 2022-02-04)"
   sodipodi:docname="logo.svg"
   xmlns:inkscape="http://www.inkscape.org/namespaces/inkscape"
   xmlns:sodipodi="http://sodipodi.sourceforge.net/DTD/sodipodi-0.dtd"
   xmlns="http://www.w3.org/2000/svg"
   xmlns:svg="http://www.w3.org/2000/svg">
  <sodipodi:namedview
     id="namedview7"
     pagecolor="#ffffff"
     bordercolor="#666666"
     borderopacity="1.0"
     inkscape:pageshadow="2"
     inkscape:pageopacity="0.0"
     inkscape:pagecheckerboard="false"
     inkscape:document-units="px"
     showgrid="false"
     units="px"
     scale-x="1"
     inkscape:snap-global="true"
     inkscape:zoom="1"
     inkscape:cx="414"
     inkscape:cy="395.5"
     inkscape:window-width="1920"
     inkscape:window-height="996"
     inkscape:window-x="0"
     inkscape:window-y="0"
     inkscape:window-maximized="1"
     inkscape:current-layer="svg5"
     showborder="true"
     inkscape:showpageshadow="true"
     borderlayer="false" />
  <defs
     id="defs2" />
  <path
     id="path9"
     style="fill:#7491db;fill-opacity:1;stroke-width:0.264583"
     sodipodi:type="inkscape:offset"
     inkscape:radius="0"
     inkscape:original="M 52.916016 0 C 12.699349 4.7369516e-15 0 12.699349 0 52.916016 C 0 93.132682 12.699349 105.83398 52.916016 105.83398 C 93.132682 105.83398 105.83398 93.132682 105.83398 52.916016 C 105.83398 12.699349 93.132682 0 52.916016 0 z "
     d="M 52.916016,0 C 12.699349,0 0,12.699349 0,52.916016 c 0,40.216666 12.699349,52.917964 52.916016,52.917964 40.216666,0 52.917964,-12.701298 52.917964,-52.917964 C 105.83398,12.699349 93.132682,0 52.916016,0 Z"
     transform="scale(3.7795045)"
     inkscape:label="elmt squircle outline" />
  <path
     id="path3909"
     style="fill:#f5f5f5;fill-opacity:1;stroke-width:0.969996"
     inkscape:label="elmt squircle inline"
     d="m 199.9961,6.0000001 c -25.8158,0 -48.5275,1.434715 -68.44922,4.5810549 L 28.820312,326.73635 c 26.696559,49.20624 79.380658,67.26366 171.175788,67.26366 25.81916,0 48.53406,-1.43448 68.458,-4.58202 L 371.17971,73.263671 C 344.48191,24.055726 291.79435,6.0000001 199.9961,6.0000001 Z" />
  <g
     id="g3293"
     inkscape:label="grup asterisk"
     transform="matrix(-3.5945447,-1.1679384,1.1679384,-3.5945447,329.24741,449.43135)">
    <path
       id="rect32-35"
       style="display:inline;fill:#7491db;stroke-width:0.201784"
       d="m 28.634418,49.872074 3.27043,-10.065348 22.31999,8.365002 -2.616343,8.052279 z"
       sodipodi:nodetypes="ccccc"
       inkscape:label="elmt asterisk part 288" />
    <path
       id="rect32-5"
       style="display:inline;fill:#7491db;stroke-width:0.201784"
       d="m 43.201078,74.573054 -8.562096,-6.220727 14.852845,-18.642644 6.849678,4.976581 z"
       sodipodi:nodetypes="ccccc"
       inkscape:label="elmt asterisk part 216" />
    <path
       id="rect32-7"
       style="display:inline;fill:#7491db;stroke-width:0.201784"
       d="M 71.194351,68.352327 62.632255,74.573054 49.491828,54.686265 56.341505,49.709683 Z"
       sodipodi:nodetypes="ccccc"
       inkscape:label="elmt asterisk part 144" />
    <path
       id="rect32-6"
       style="display:inline;fill:#7491db;stroke-width:0.201784"
       d="m 73.928485,39.806726 3.27043,10.065348 -22.974076,6.351933 -2.616344,-8.052279 z"
       sodipodi:nodetypes="ccccc"
       inkscape:label="elmt asterisk part 72" />
    <path
       id="rect32"
       style="fill:#7491db;stroke-width:0.201784"
       d="M 47.625,28.385458 H 58.208333 L 57.15,52.197958 h -8.466667 z"
       sodipodi:nodetypes="ccccc"
       inkscape:label="elmt asterisk part 0" />
  </g>
</svg>
